<svg width="68" height="87" viewBox="0 0 68 87" fill="none" xmlns="http://www.w3.org/2000/svg">
<g clip-path="url(#clip0_10_619)">
<path d="M7.24888 40.7766C24.0216 39.0238 40.9383 41.7144 57.6698 39.29C58.4515 39.1753 58.1183 37.9918 57.3407 38.1064C40.7285 40.5104 23.9064 37.8075 7.24888 39.548C6.46722 39.6299 6.45899 40.8585 7.24888 40.7766Z" fill="#727272"/>
<path d="M7.08434 39.5726C5.44698 40.0804 5.65268 42.21 6.52073 43.3403C7.94416 45.1913 11.1407 45.2323 13.2265 45.0357C14.0123 44.962 14.0164 43.7334 13.2265 43.8071C11.8771 43.9341 10.4784 43.9218 9.16602 43.5368C8.4831 43.3362 7.76315 43.0536 7.37232 42.4147C7.17073 42.083 6.78402 40.9527 7.41346 40.7602C8.17043 40.5227 7.84543 39.3351 7.08434 39.5726Z" fill="#727272"/>
<path d="M54.7818 39.6748C55.6499 39.6216 56.4891 39.4742 57.3531 39.3595C58.723 39.1752 59.4265 39.5438 59.6651 40.9771C59.8626 42.1689 59.1097 42.517 58.0483 42.8528C57.5464 43.0125 57.0198 43.1108 56.5015 43.2132C55.1151 43.4834 53.7245 43.6186 52.3134 43.6677C51.5236 43.6964 51.5194 44.925 52.3134 44.8963C54.7201 44.8103 61.4794 44.7202 61.2161 40.9321C61.1503 39.9861 60.2329 38.6797 59.373 38.2538C58.0895 37.6149 56.0901 38.3643 54.7777 38.4462C53.9919 38.4954 53.9878 39.724 54.7818 39.6748Z" fill="#727272"/>
<path d="M9.05491 44.7734C8.88623 47.3739 5.92417 48.8441 4.35263 50.6297C3.11843 52.0344 2.14753 53.652 1.44404 55.3761C-0.069904 59.0701 -0.357883 63.2104 0.411432 67.105C1.99531 75.0949 8.05932 81.6883 15.6332 84.5181C16.3778 84.7966 16.6987 83.609 15.9623 83.3346C8.09635 80.3942 1.98297 73.0268 1.30005 64.5782C0.975047 60.5648 1.82664 56.3876 4.07699 53.009C5.94474 50.2079 10.0546 48.4141 10.2891 44.7734C10.3385 43.9871 9.10428 43.9871 9.05491 44.7734Z" fill="#727272"/>
<path d="M55.8226 44.2493C55.8226 47.4805 58.1799 49.5076 60.5783 51.3136C62.6394 52.8617 64.2357 54.3687 65.2518 56.7972C66.1363 58.9063 66.6259 61.1833 66.737 63.4643C67.1401 71.8556 62.2445 79.6448 54.72 83.31C54.0083 83.6581 54.6295 84.7188 55.3413 84.3707C62.3309 80.9675 67.2594 74.0506 67.9177 66.3024C68.2509 62.3832 67.568 58.0668 65.5686 54.6308C63.3676 50.8427 57.0568 49.1063 57.0527 44.2493C57.0568 43.4589 55.8226 43.4589 55.8226 44.2493Z" fill="#727272"/>
<path d="M15.267 83.6172C14.4689 85.3823 15.9006 86.9058 17.6778 86.9877C19.6073 87.0819 21.6437 86.6355 23.5773 86.5536C25.8194 86.4553 28.0615 86.4512 30.3036 86.4839C38.6715 86.6109 47.0352 87.2457 55.366 86.1154C55.6499 86.0785 55.7939 85.7673 55.8185 85.5215C55.8844 84.8335 55.8268 84.3257 55.6252 83.6787C55.3907 82.9251 54.2018 83.2487 54.4362 84.0063C54.6461 84.5018 54.6954 85.0096 54.5843 85.5215C54.7366 85.325 54.8847 85.1284 55.0369 84.9277C48.5409 85.8082 41.9873 85.5871 35.4543 85.3823C32.2866 85.284 29.1147 85.1939 25.9469 85.2472C24.4988 85.2717 23.0507 85.3291 21.6026 85.4274C20.8127 85.4806 20.0269 85.5543 19.2411 85.6321C18.6611 85.6895 15.4439 86.185 16.3284 84.2274C16.6534 83.519 15.592 82.8965 15.267 83.6172Z" fill="#727272"/>
<path d="M7.08022 51.2236C2.05294 57.3788 1.66211 65.9707 6.17514 72.5231C6.3973 72.8467 6.93212 72.5395 6.70996 72.2119C2.36148 65.9011 2.66181 57.604 7.52042 51.6536C7.76314 51.3546 7.33117 50.9165 7.08022 51.2236Z" fill="#727272"/>
<path d="M7.41333 74.8042C7.8165 75.3857 8.27727 75.9222 8.79152 76.4095C9.07949 76.6798 9.51558 76.2498 9.2276 75.9754C8.75038 75.5249 8.32252 75.0335 7.94404 74.497C7.72188 74.1735 7.18706 74.4765 7.41333 74.8042Z" fill="#727272"/>
<path d="M10.8651 78.3384C11.2641 78.3384 11.2641 77.7241 10.8651 77.7241C10.466 77.7241 10.466 78.3384 10.8651 78.3384Z" fill="#727272"/>
<path d="M54.6295 44.2821C54.3128 45.4615 54.0412 46.6492 54.5061 47.8286C54.9381 48.9221 55.8144 49.909 56.559 50.8141C58.3445 52.9764 61.9977 55.1592 62.1705 58.1733C62.191 58.5664 62.8081 58.5705 62.7876 58.1733C62.66 55.9168 60.9898 54.4712 59.4511 53.0051C58.4597 52.059 57.5258 51.0557 56.6701 49.9827C56.0941 49.2579 55.4441 48.4921 55.1109 47.6198C54.7036 46.5591 54.9381 45.5148 55.222 44.45C55.3248 44.0651 54.7283 43.9012 54.6295 44.2821Z" fill="#727272"/>
<path d="M62.4379 59.5985C62.5243 60.3848 62.6107 61.1711 62.6971 61.9574C62.7382 62.3464 63.3594 62.3505 63.3141 61.9574C63.2278 61.1711 63.1414 60.3848 63.055 59.5985C63.0138 59.2095 62.3967 59.2054 62.4379 59.5985Z" fill="#727272"/>
<path d="M62.4955 63.575C62.5408 63.8043 62.5037 64.0214 62.4173 64.2343C62.3556 64.3899 62.4873 64.5701 62.6313 64.6111C62.8082 64.6602 62.948 64.5497 63.0097 64.3981C63.1373 64.0787 63.1537 63.747 63.0879 63.4112C63.018 63.0262 62.4215 63.19 62.4955 63.575Z" fill="#727272"/>
<path d="M35.7423 59.0824C37.2151 56.2976 39.9879 54.4752 43.2091 54.6349C47.0434 54.8233 51.0751 58.1446 48.3887 62.0678C46.813 64.3653 43.9826 65.8519 41.8968 67.662C39.5806 69.6728 37.4619 71.8883 35.5078 74.2554C35.0059 74.8615 35.8739 75.7338 36.3799 75.1236C39.3585 71.5156 42.7278 68.4647 46.4304 65.6144C48.9029 63.706 51.6387 60.8106 50.1371 57.4566C48.8947 54.68 45.4636 53.3162 42.5715 53.3981C39.1651 53.4964 36.2442 55.4949 34.6726 58.4599C34.3065 59.1602 35.372 59.7827 35.7423 59.0824Z" fill="#727272"/>
<path d="M35.4502 58.1282C32.8131 55.1755 29.5219 52.1328 25.2516 52.3539C22.0838 52.5177 19.3563 54.9094 18.8996 58.0586C18.336 61.8959 21.2158 65.2622 24.0215 67.4859C27.469 70.2175 32.6691 71.1635 35.2486 74.8656C35.697 75.5127 36.7666 74.8984 36.3141 74.2473C34.7055 71.9375 32.3647 70.7499 29.8798 69.5541C26.7203 68.0347 23.606 66.155 21.5737 63.2228C19.3069 59.9588 19.6813 54.9667 24.075 53.7709C28.3741 52.6037 31.9944 56.1093 34.5739 58.9964C35.1046 59.5903 35.9767 58.718 35.4502 58.1282Z" fill="#727272"/>
</g>
<g clip-path="url(#clip1_10_619)">
<path d="M31.4719 12.629C30.283 14.782 28.4688 16.507 26.1404 17.4C25.2313 17.7507 24.0342 17.7303 24.1535 16.4866C24.2275 15.7118 25.0667 15.039 25.6755 14.676C26.7122 14.0562 28.041 13.8523 29.1558 13.3711C29.8798 13.0571 29.2545 12.001 28.5346 12.315C26.5436 13.1754 24.3633 13.3793 23.232 15.4671C22.6272 16.5844 22.4298 18.1381 23.7914 18.7742C25.2683 19.4634 27.3005 18.3501 28.5264 17.5672C30.2295 16.4825 31.5665 15.0022 32.5332 13.2447C32.9199 12.5556 31.8544 11.9357 31.4719 12.629Z" fill="#46A358"/>
<path d="M28.8966 12.1192C27.3992 12.2823 25.9141 12.2904 24.429 12.0131C23.886 11.9112 23.3471 11.7725 22.8205 11.6054C22.3763 11.4749 21.9484 11.3158 21.5247 11.1242C20.8953 10.3331 20.957 9.89268 21.7181 9.79482C23.9477 8.0903 27.4321 9.88045 29.6206 10.7082C30.3652 10.9896 30.6861 9.80705 29.9497 9.52976C28.045 8.80799 25.9552 7.7233 23.8613 7.95573C22.6601 8.08622 19.8915 8.6041 19.5707 10.1007C18.8302 13.5668 27.1071 13.5423 28.8966 13.3466C29.6782 13.2569 29.6864 12.0335 28.8966 12.1192Z" fill="#46A358"/>
<path d="M30.353 9.5501C28.4812 8.07802 26.8192 5.7863 26.9097 3.30292C26.9509 2.19784 27.6584 1.7289 28.6828 2.22639C29.2463 2.4996 29.6372 3.1969 29.9457 3.72294C30.6615 4.95443 30.9618 6.36127 31.2251 7.74364C31.3732 8.51434 32.5621 8.18812 32.414 7.41742C32.019 5.35405 31.4554 3.20506 29.9169 1.66365C29.0078 0.754304 27.4939 -0.28961 26.4243 0.933727C23.9231 3.79226 27.1977 8.61629 29.4808 10.4146C30.0979 10.8999 30.9782 10.0394 30.353 9.5501Z" fill="#46A358"/>
<path d="M32.3851 7.756C32.6566 5.7905 33.5205 2.05117 35.7995 1.41503C37.9181 0.827829 37.7083 4.20424 37.1159 5.32156C36.5194 6.44703 35.347 7.50317 34.4955 8.44514C33.9689 9.02827 34.8369 9.89684 35.3676 9.30964C36.5894 7.95581 38.4159 6.40217 38.6792 4.49784C38.8849 3.02168 38.7738 0.791129 37.1324 0.138682C35.635 -0.456675 34.154 0.897152 33.3025 1.96146C32.0478 3.52733 31.4636 5.46836 31.1921 7.42162C31.0851 8.20048 32.274 8.53486 32.3851 7.756Z" fill="#46A358"/>
<path d="M35.454 9.46471C36.8897 8.274 39.5555 7.4462 41.3079 8.51866C43.5787 9.91327 40.3618 10.7492 39.3004 10.8185C38.165 10.896 37.0296 10.8267 35.9024 10.6962C35.1167 10.6065 35.1208 11.8298 35.9024 11.9195C37.7454 12.1316 40.2342 12.4048 41.9497 11.4995C43.0152 10.9368 43.7803 9.57481 43.1262 8.42895C42.394 7.14445 40.333 6.83454 38.996 6.87124C37.3381 6.92017 35.8448 7.5563 34.586 8.60022C33.9731 9.10587 34.8493 9.97036 35.454 9.46471Z" fill="#46A358"/>
<path d="M35.5856 11.8786C36.8567 12.3435 38.1197 13.0449 38.8437 14.2274C39.7487 15.7117 39.7693 18.4439 37.1365 17.9341C34.8204 17.4856 33.1461 15.0471 32.673 12.9307C32.5003 12.1641 31.3114 12.4862 31.4841 13.2569C31.9038 15.1408 32.9528 16.8046 34.5242 17.9586C35.7584 18.8679 37.9263 19.9526 39.3785 18.921C40.8718 17.8607 40.8718 15.6669 40.1971 14.1581C39.3991 12.3802 37.7001 11.3485 35.9229 10.6961C35.166 10.4269 34.8451 11.6095 35.5856 11.8786Z" fill="#46A358"/>
<path d="M23.1044 15.247C19.5008 17.4001 16.8433 19.7978 16.2139 24.1121C15.5269 28.7975 16.6252 33.6949 17.629 38.258C17.7977 39.0287 18.9866 38.7024 18.8179 37.9317C17.9293 33.8947 17.0202 29.7109 17.2958 25.5556C17.5961 21.0252 19.9656 18.55 23.7215 16.3072C24.4044 15.8994 23.7873 14.8392 23.1044 15.247Z" fill="#46A358"/>
<path d="M39.0082 13.8645C44.0476 14.2559 47.6143 18.2685 48.9677 22.8642C50.4404 27.8676 49.6177 33.1361 48.8155 38.1763C48.6921 38.947 49.8809 39.2773 50.0044 38.5025C50.9423 32.5897 51.8844 26.3099 49.4613 20.6091C47.6266 16.2908 43.8172 13.0163 39.0082 12.6411C38.2143 12.58 38.2184 13.8033 39.0082 13.8645Z" fill="#46A358"/>
<path d="M24.3263 17.7833C18.2996 22.1302 20.2536 31.9577 21.4713 38.0662C21.6235 38.8369 22.8165 38.5107 22.6602 37.74C22.0226 34.543 21.4302 31.3093 21.4919 28.039C21.5536 24.8583 22.1583 20.8498 24.9475 18.8395C25.5851 18.3787 24.9721 17.3184 24.3263 17.7833Z" fill="#46A358"/>
<path d="M31.0934 13.8278C28.8514 17.2491 27.4033 21.074 26.8767 25.1273C26.6011 27.2519 26.5805 29.405 26.8356 31.5336C27.1112 33.8579 27.864 36.0925 28.1438 38.4169C28.2343 39.1876 29.4725 39.1998 29.3779 38.4169C28.8925 34.3595 27.6419 30.6242 27.971 26.473C28.3124 22.1628 29.7934 18.0605 32.1629 14.4435C32.5908 13.7829 31.5253 13.1713 31.0934 13.8278Z" fill="#46A358"/>
<path d="M34.1088 17.608C35.9477 20.6174 36.3344 24.0223 36.6552 27.4599C36.9885 31.0361 37.26 34.6164 37.4903 38.2008C37.5397 38.9838 38.7738 38.9878 38.7245 38.2008C38.4653 34.1434 38.1732 30.086 37.7536 26.0409C37.4245 22.8643 36.8692 19.7529 35.1743 16.9882C34.7629 16.3194 33.6933 16.9311 34.1088 17.608Z" fill="#46A358"/>
<path d="M39.7241 18.1789C44.3192 23.9082 44.4714 31.2237 44.3068 38.2049C44.2904 38.9919 45.5245 38.9919 45.541 38.2049C45.7137 30.8404 45.4176 23.3291 40.5962 17.3144C40.1026 16.6986 39.2345 17.5713 39.7241 18.1789Z" fill="#46A358"/>
<path d="M31.9532 19.6713C31.8833 19.9445 31.8174 20.2137 31.7475 20.4869C31.6529 20.8702 32.2453 21.0333 32.344 20.65C32.4139 20.3768 32.4798 20.1077 32.5497 19.8344C32.6443 19.4552 32.0519 19.2921 31.9532 19.6713Z" fill="#46A358"/>
<path d="M33.286 21.7958C33.286 22.1016 33.286 22.4075 33.286 22.7133C33.286 23.1089 33.9031 23.1089 33.9031 22.7133C33.9031 22.4075 33.9031 22.1016 33.9031 21.7958C33.9031 21.4003 33.286 21.4003 33.286 21.7958Z" fill="#46A358"/>
<path d="M30.3077 23.7328C30.2748 24.1732 30.2377 24.6177 30.2048 25.0581C30.176 25.4496 30.7931 25.4496 30.8219 25.0581C30.8548 24.6177 30.8918 24.1732 30.9247 23.7328C30.9535 23.3413 30.3365 23.3413 30.3077 23.7328Z" fill="#46A358"/>
<path d="M34.3145 25.8736C34.3145 26.2813 34.3145 26.6891 34.3145 27.0969C34.3145 27.4924 34.9315 27.4924 34.9315 27.0969C34.9315 26.6891 34.9315 26.2813 34.9315 25.8736C34.9315 25.478 34.3145 25.478 34.3145 25.8736Z" fill="#46A358"/>
<path d="M31.9491 28.1164C31.9491 28.5568 31.9491 29.0012 31.9491 29.4416C31.9491 29.8372 32.5662 29.8372 32.5662 29.4416C32.5662 29.0012 32.5662 28.5568 32.5662 28.1164C32.5662 27.7208 31.9491 27.7208 31.9491 28.1164Z" fill="#46A358"/>
<path d="M30.6121 32.602C30.6121 33.2136 30.6121 33.8253 30.6121 34.437C30.6121 34.8325 31.2291 34.8325 31.2291 34.437C31.2291 33.8253 31.2291 33.2136 31.2291 32.602C31.2291 32.2064 30.6121 32.2064 30.6121 32.602Z" fill="#46A358"/>
<path d="M28.7814 28.6017C28.8514 29.0094 28.9254 29.4172 28.9954 29.825C29.0612 30.2124 29.6577 30.0493 29.5919 29.6619C29.5219 29.2541 29.4479 28.8463 29.3779 28.4385C29.308 28.0552 28.7115 28.2183 28.7814 28.6017Z" fill="#46A358"/>
<path d="M33.5 34.641C33.5329 35.0487 33.5699 35.4565 33.6028 35.8643C33.6358 36.2558 34.2528 36.2558 34.2199 35.8643C34.187 35.4565 34.15 35.0487 34.1171 34.641C34.0842 34.2495 33.463 34.2454 33.5 34.641Z" fill="#46A358"/>
<path d="M35.347 30.0533C35.3799 30.4611 35.4169 30.8689 35.4498 31.2766C35.4827 31.664 36.0998 31.6681 36.0669 31.2766C36.034 30.8689 35.9969 30.4611 35.964 30.0533C35.9311 29.6618 35.3141 29.6578 35.347 30.0533Z" fill="#46A358"/>
<path d="M42.431 16.4011C42.9082 16.8129 43.3854 17.2248 43.8626 17.6326C44.1629 17.8895 44.5989 17.4572 44.2986 17.2003C43.8214 16.7885 43.3442 16.3766 42.867 15.9688C42.5708 15.7119 42.1307 16.1401 42.431 16.4011Z" fill="#46A358"/>
<path d="M42.6901 19.8059C42.9575 20.283 43.229 20.7642 43.4964 21.2413C43.6898 21.5838 44.2246 21.278 44.0312 20.9314C43.7638 20.4543 43.4923 19.9731 43.2249 19.496C43.0275 19.1534 42.4968 19.4634 42.6901 19.8059Z" fill="#46A358"/>
<path d="M45.1625 20.0056C45.467 20.4174 45.7714 20.8293 46.0758 21.2371C46.3062 21.5511 46.8451 21.2452 46.6106 20.9272C46.3062 20.5153 46.0017 20.1034 45.6973 19.6957C45.4628 19.3858 44.928 19.6875 45.1625 20.0056Z" fill="#46A358"/>
<path d="M46.6846 25.3395C46.7874 26.0531 46.8944 26.7667 46.9972 27.4803C47.0548 27.8677 47.6472 27.7046 47.5937 27.3172C47.4909 26.6036 47.3839 25.89 47.2811 25.1764C47.2194 24.789 46.627 24.9562 46.6846 25.3395Z" fill="#46A358"/>
<path d="M44.6112 23.5085C44.7141 23.8469 44.8169 24.1895 44.9198 24.5279C45.035 24.9031 45.6273 24.744 45.5163 24.3648C45.4134 24.0263 45.3106 23.6838 45.2077 23.3453C45.0926 22.9702 44.4961 23.1292 44.6112 23.5085Z" fill="#46A358"/>
<path d="M47.8817 31.1748C47.9269 31.66 47.9187 32.1453 47.8406 32.6265C47.7789 33.0098 48.3712 33.177 48.4371 32.7896C48.5234 32.2513 48.5522 31.7171 48.5029 31.1748C48.4617 30.7874 47.8447 30.7833 47.8817 31.1748Z" fill="#46A358"/>
<path d="M46.4501 33.1116C46.4501 33.4868 46.4501 33.8578 46.4501 34.233C46.4501 34.6285 47.0671 34.6285 47.0671 34.233C47.0671 33.8578 47.0671 33.4868 47.0671 33.1116C47.0671 32.7161 46.4501 32.7161 46.4501 33.1116Z" fill="#46A358"/>
<path d="M47.0877 22.8929C47.2564 23.3007 47.4292 23.7085 47.5979 24.1163C47.6637 24.2712 47.8035 24.3773 47.9763 24.3283C48.1203 24.2916 48.2561 24.104 48.1902 23.9532C48.0216 23.5454 47.8488 23.1376 47.6801 22.7298C47.6143 22.5749 47.4744 22.4688 47.3017 22.5178C47.1577 22.5545 47.026 22.7421 47.0877 22.8929Z" fill="#46A358"/>
<path d="M45.9359 29.9513C45.9359 30.1878 45.9359 30.4284 45.9359 30.6649C45.9359 31.0605 46.553 31.0605 46.553 30.6649C46.553 30.4284 46.553 30.1878 46.553 29.9513C46.553 29.5558 45.9359 29.5558 45.9359 29.9513Z" fill="#46A358"/>
<path d="M47.17 36.7817C47.1536 37.0712 47.0836 37.3485 46.9767 37.6177C46.915 37.7726 47.0466 37.952 47.1906 37.9928C47.3675 38.0417 47.5073 37.9316 47.569 37.7808C47.7007 37.4586 47.7665 37.1283 47.7871 36.7817C47.8118 36.3862 47.1947 36.3902 47.17 36.7817Z" fill="#46A358"/>
<path d="M21.2902 18.8843C21.0804 19.1861 20.8706 19.4879 20.6567 19.7896C20.4305 20.1158 20.9653 20.4217 21.1915 20.0995C21.4013 19.7978 21.6111 19.496 21.825 19.1943C22.0472 18.868 21.5124 18.5622 21.2902 18.8843Z" fill="#46A358"/>
<path d="M19.5296 23.3453C19.4514 23.7164 19.3774 24.0874 19.2992 24.4626C19.221 24.8459 19.8134 25.0131 19.8957 24.6257C19.9739 24.2546 20.0479 23.8836 20.1261 23.5084C20.2042 23.1251 19.6077 22.962 19.5296 23.3453Z" fill="#46A358"/>
<path d="M19.3321 21.1229C19.0071 21.5511 18.7644 22.0241 18.5998 22.5338C18.4764 22.909 19.0729 23.068 19.1963 22.6969C19.3485 22.2361 19.5748 21.8202 19.8669 21.4328C20.1055 21.1148 19.5666 20.813 19.3321 21.1229Z" fill="#46A358"/>
<path d="M18.0773 25.1803C18.0033 25.69 17.9251 26.1957 17.8511 26.7054C17.7935 27.0887 18.39 27.2559 18.4476 26.8685C18.5216 26.3588 18.5998 25.8531 18.6738 25.3434C18.7314 24.956 18.1349 24.7888 18.0773 25.1803Z" fill="#46A358"/>
<path d="M18.6945 28.1164C18.6411 28.6261 18.674 29.1277 18.7727 29.6293C18.8468 30.0167 19.4432 29.8536 19.3692 29.4662C19.2828 29.0176 19.2664 28.569 19.3157 28.1164C19.3486 27.7249 18.7316 27.729 18.6945 28.1164Z" fill="#46A358"/>
<path d="M19.2004 31.9904C19.2333 32.2962 19.2704 32.6021 19.3033 32.9079C19.3197 33.071 19.4308 33.2137 19.6118 33.2137C19.764 33.2137 19.9409 33.0751 19.9203 32.9079C19.8874 32.6021 19.8504 32.2962 19.8175 31.9904C19.801 31.8273 19.69 31.6846 19.509 31.6846C19.3568 31.6846 19.184 31.8232 19.2004 31.9904Z" fill="#46A358"/>
<path d="M18.2008 34.2902C18.4394 34.6776 18.6122 35.0854 18.7192 35.5298C18.8138 35.9132 19.4062 35.7501 19.3156 35.3667C19.1964 34.8774 18.9989 34.4125 18.7356 33.9803C18.5258 33.6459 17.9951 33.9558 18.2008 34.2902Z" fill="#46A358"/>
<path d="M19.5172 36.8634C19.5871 37.0346 19.6529 37.2018 19.7229 37.3731C19.7846 37.524 19.9286 37.6341 20.1013 37.5851C20.2494 37.5444 20.3811 37.3649 20.3153 37.21C20.2453 37.0387 20.1795 36.8715 20.1096 36.7002C20.0479 36.5494 19.9039 36.4393 19.7311 36.4882C19.5871 36.5249 19.4555 36.7084 19.5172 36.8634Z" fill="#46A358"/>
</g>
<defs>
<clipPath id="clip0_10_619">
<rect width="68" height="49" fill="white" transform="translate(0 38)"/>
</clipPath>
<clipPath id="clip1_10_619">
<rect width="35" height="39" fill="white" transform="translate(16)"/>
</clipPath>
</defs>
</svg>
