<svg width="83" height="85" viewBox="0 0 83 85" fill="none" xmlns="http://www.w3.org/2000/svg">
<g clip-path="url(#clip0_10_734)">
<path d="M44.3006 44.0269C44.3205 44.5112 44.4595 44.9692 44.7176 45.3814C44.9393 45.7413 45.5053 45.3978 45.2835 45.0412C45.0883 44.7238 44.979 44.3868 44.9658 44.0171C44.946 43.5951 44.2841 43.6082 44.3006 44.0269Z" fill="#46A358"/>
<path d="M52.8093 43.9844C52.7762 44.1676 52.7398 44.3476 52.7067 44.5308C52.6736 44.7042 52.7663 44.8841 52.945 44.9299C53.1105 44.9724 53.3156 44.8678 53.3487 44.6944C53.3818 44.5111 53.4182 44.3312 53.4513 44.148C53.4844 43.9746 53.3918 43.7946 53.2131 43.7488C53.0476 43.7063 52.8424 43.811 52.8093 43.9844Z" fill="#46A358"/>
<path d="M57.3401 44.6355C57.767 44.6257 57.7538 43.9714 57.3268 43.9812C56.8999 43.991 56.9131 44.6453 57.3401 44.6355Z" fill="#46A358"/>
<path d="M32.4823 45.7936C32.9092 45.7838 32.896 45.1295 32.469 45.1393C32.0421 45.1491 32.0554 45.8034 32.4823 45.7936Z" fill="#46A358"/>
<path d="M44.5885 4.38731C42.0335 11.8369 40.6402 19.6399 40.488 27.5083C40.4118 31.4638 40.6468 35.4225 41.1929 39.342C41.4444 41.1479 41.7621 42.9474 42.146 44.7304C42.4472 46.1242 42.6027 47.7175 43.6486 48.7808C44.0953 49.2355 44.7804 48.5256 44.3369 48.0741C43.2084 46.9257 43.0926 44.4981 42.8013 42.9964C42.434 41.0989 42.1427 39.1849 41.9276 37.2612C41.5205 33.6231 41.3848 29.9588 41.5139 26.301C41.7754 18.9201 43.1554 11.621 45.5515 4.62941C45.7567 4.03069 44.7903 3.79186 44.5885 4.38731Z" fill="#46A358"/>
<path d="M48.4407 4.52135C49.7778 11.9644 49.8109 19.5711 50.0789 27.1058C50.2047 30.6457 50.4198 34.1955 50.347 37.7388C50.2709 41.4161 49.5461 44.8743 48.5698 48.4077C48.401 49.0195 49.3641 49.2583 49.5329 48.6498C50.4496 45.3421 51.1777 42.077 51.3167 38.6352C51.4722 34.791 51.2108 30.9271 51.0751 27.0894C50.8037 19.4631 50.7475 11.7779 49.3939 4.24326C49.2814 3.62164 48.3282 3.903 48.4407 4.52135Z" fill="#46A358"/>
<path d="M55.6291 17.3104C56.0825 27.4951 56.4929 37.8042 53.9776 47.7796C53.8221 48.3947 54.7851 48.6335 54.9407 48.0217C57.4758 37.9613 57.0819 27.5606 56.6219 17.2908C56.5921 16.6593 55.5993 16.6757 55.6291 17.3104Z" fill="#46A358"/>
<path d="M52.8226 17.4608C51.4161 19.0868 50.4762 20.9778 50.0625 23.0815C49.94 23.6999 50.9031 23.9453 51.0256 23.3236C51.4062 21.3803 52.2368 19.6463 53.5375 18.1413C53.9512 17.6604 53.2396 16.9798 52.8226 17.4608Z" fill="#46A358"/>
<path d="M62.6055 23.7163C62.5824 31.0907 61.5829 38.3963 59.6236 45.5123C59.4549 46.1241 60.4179 46.3629 60.5867 45.7544C62.5658 38.5567 63.5752 31.1561 63.5984 23.6967C63.5984 23.0652 62.6055 23.0849 62.6055 23.7163Z" fill="#46A358"/>
<path d="M60.719 21.5211C58.1509 24.4624 56.8899 28.0841 55.9831 31.8106C55.8342 32.4257 56.7973 32.6678 56.9462 32.0527C57.8133 28.5029 58.9849 25.012 61.4372 22.2017C61.8509 21.724 61.136 21.0402 60.719 21.5211Z" fill="#46A358"/>
<path d="M36.7549 10.4171C38.5221 14.5329 39.8062 18.7991 40.6005 23.1995C40.713 23.8212 41.6629 23.5365 41.5537 22.9182C40.7594 18.5178 39.472 14.2515 37.708 10.1357C37.4598 9.56317 36.5067 9.83472 36.7549 10.4171Z" fill="#46A358"/>
<path d="M34.9148 10.7735C34.3952 17.0192 33.8855 23.3434 34.9379 29.5661C36.04 36.0571 38.7472 42.3911 40.8289 48.6236C41.0274 49.2224 41.9806 48.9443 41.782 48.3423C39.7665 42.2995 37.1619 36.1553 35.997 29.8867C34.8254 23.5756 35.3781 17.101 35.9076 10.7539C35.9606 10.1258 34.9677 10.1487 34.9148 10.7735Z" fill="#46A358"/>
<path d="M28.5969 25.8625C31.9097 28.9117 34.5937 32.4779 36.6059 36.4857C36.8905 37.0517 37.7345 36.5348 37.4532 35.972C35.4046 31.8922 32.6577 28.2574 29.2853 25.1526C28.8186 24.724 28.1303 25.4307 28.5969 25.8625Z" fill="#46A358"/>
<path d="M26.3233 27.1222C28.8882 34.6994 32.34 41.9364 36.6258 48.7087C36.9634 49.2453 37.8139 48.7349 37.4731 48.1951C33.2303 41.4914 29.8148 34.3395 27.2764 26.8408C27.0746 26.2454 26.1214 26.5202 26.3233 27.1222Z" fill="#46A358"/>
<path d="M32.0686 46.7621C30.6058 44.1774 28.4612 42.0279 25.7937 40.6604C25.251 40.3823 24.7314 40.4542 25.7838 40.3496C26.1677 40.3103 26.5649 40.2939 26.9488 40.3005C28.1998 40.3136 29.3316 40.536 30.4072 41.2067C31.6582 41.9854 32.7503 43.1043 33.869 44.0564C34.3521 44.4686 35.0405 43.7619 34.5573 43.3497C33.1409 42.1392 31.7376 40.6276 30.0001 39.8752C29.0304 39.4531 27.9813 39.3288 26.9289 39.3255C26.2604 39.3222 24.8704 39.1979 24.3111 39.7607C23.2189 40.8534 25.3106 41.4979 25.9625 41.8807C28.1998 43.1828 29.9604 45.0542 31.2213 47.2855C31.5324 47.8286 32.3797 47.315 32.0686 46.7621Z" fill="#46A358"/>
<path d="M62.2811 38.7923C63.2508 36.6559 65.5046 35.9852 67.6492 35.5402C67.9636 35.4748 68.0893 35.0626 67.9305 34.8139C66.7655 32.9949 64.6441 32.8084 62.6551 32.9883C62.023 33.0439 62.0362 34.0254 62.675 33.9698C64.2801 33.8259 66.1169 33.816 67.0832 35.3276C67.1759 35.0855 67.2719 34.8434 67.3646 34.6013C64.9751 35.0953 62.483 35.9492 61.414 38.3146C61.1526 38.8872 62.0197 39.3681 62.2811 38.7923Z" fill="#46A358"/>
<path d="M28.4314 24.9138C27.9945 25.4831 27.5047 26.193 26.78 26.4221C26.0651 26.6478 25.3006 26.3239 25.3569 25.47C25.3999 24.8026 25.979 24.3151 26.5417 24.037C27.197 23.7131 28.994 23.5593 28.5174 24.8026C28.2924 25.3948 29.2555 25.627 29.4805 25.0447C29.9405 23.844 28.8352 22.7938 27.6636 22.7709C26.4325 22.748 24.9994 23.5561 24.5361 24.711C24.1026 25.7808 24.556 27.1189 25.7606 27.4232C27.2334 27.7929 28.3487 26.638 29.1496 25.5976C29.5302 25.0938 28.8186 24.41 28.4314 24.9138Z" fill="#46A358"/>
<path d="M36.9965 9.68083C36.3776 9.79534 35.4807 10.1945 34.8618 9.86732C34.2429 9.53688 34.3555 8.71569 34.7129 8.24129C35.0869 7.74727 35.676 7.56733 36.2717 7.73091C36.7549 7.86505 38.2607 9.11483 37.2116 9.5467C36.6291 9.78553 36.9038 10.731 37.4962 10.4889C38.7373 9.97856 38.6942 8.55865 37.8966 7.64585C37.0924 6.72323 35.6528 6.37316 34.5772 7.04386C33.6373 7.63276 33.1144 8.91526 33.6241 9.94257C34.3455 11.4017 36.0334 10.8521 37.2811 10.6231C37.9066 10.5053 37.6186 9.56305 36.9965 9.68083Z" fill="#46A358"/>
<path d="M48.7916 3.6937C47.9311 3.9129 46.9283 4.17136 46.0414 3.9587C44.7937 3.66425 44.7474 2.25089 45.6244 1.51803C46.326 0.932397 47.4016 0.866963 48.2521 1.12215C48.7883 1.28247 49.4171 1.62927 49.5627 2.21162C49.7017 2.758 49.4336 3.29782 48.8776 3.43196C48.2588 3.58246 48.5401 4.5247 49.1623 4.37421C50.6416 4.01432 50.9659 2.19199 50.0558 1.11888C49.0299 -0.0883685 46.9714 -0.294485 45.5913 0.372939C44.294 1.0011 43.503 2.68929 44.3668 3.97833C45.3662 5.47349 47.62 5.00237 49.0729 4.6294C49.6918 4.47563 49.4105 3.53338 48.7916 3.6937Z" fill="#46A358"/>
<path d="M55.8707 13.3419C54.4443 13.09 52.8822 13.4989 52.2302 14.8959C51.7007 16.0279 52.2004 17.4969 53.4316 17.9222C54.6726 18.3508 56.5557 17.8208 57.2441 16.6823C57.9027 15.5863 57.4261 14.1958 56.387 13.5414C55.8475 13.2012 55.3676 14.0616 55.9038 14.3986C56.5723 14.8174 56.7907 15.7695 56.2446 16.3813C55.7581 16.9276 54.719 17.1599 54.014 17.0356C53.1072 16.8753 52.7564 15.9363 53.2098 15.1609C53.7062 14.3136 54.7289 14.1369 55.6291 14.2939C56.2546 14.4052 56.4995 13.4531 55.8707 13.3419Z" fill="#46A358"/>
<path d="M63.5652 18.7663C62.3109 18.6845 60.5734 18.8612 60.2954 20.3793C60.067 21.6225 61.4968 23.2649 62.5922 23.7066C65.7197 24.9662 66.3882 18.6845 63.691 18.8514C63.0555 18.8906 63.0721 19.8721 63.7108 19.8329C64.5878 19.7773 64.3727 21.8286 64.1741 22.2343C63.7075 23.1995 62.8139 22.8461 62.2248 22.231C61.7714 21.7566 60.9573 20.9158 61.4273 20.2353C61.8807 19.581 62.8934 19.7053 63.5851 19.7478C64.2238 19.7904 64.1973 18.8089 63.5652 18.7663Z" fill="#46A358"/>
<path d="M45.6377 6.17679C45.5384 6.50723 45.4358 6.83767 45.3365 7.16811C45.214 7.5738 45.8561 7.73084 45.9785 7.32843C46.0778 6.99799 46.1804 6.66755 46.2797 6.33711C46.4022 5.93142 45.7601 5.77438 45.6377 6.17679Z" fill="#46A358"/>
<path d="M47.0508 6.23246C47.0541 6.45166 47.0608 6.66759 47.0641 6.88679C47.074 7.30884 47.7359 7.29575 47.726 6.87371C47.7227 6.6545 47.716 6.43857 47.7127 6.21937C47.7061 5.79732 47.0442 5.81041 47.0508 6.23246Z" fill="#46A358"/>
<path d="M46.5809 10.1682C47.0078 10.1584 46.9946 9.50409 46.5676 9.5139C46.144 9.52045 46.1573 10.1748 46.5809 10.1682Z" fill="#46A358"/>
<path d="M44.605 10.5347C44.5752 10.8978 44.5455 11.2643 44.519 11.6274C44.5057 11.8041 44.6911 11.9513 44.8566 11.9481C45.0518 11.9448 45.1676 11.791 45.1809 11.6143C45.2107 11.2512 45.2405 10.8848 45.2669 10.5216C45.2802 10.3449 45.0948 10.1977 44.9294 10.201C44.7341 10.2043 44.6183 10.358 44.605 10.5347Z" fill="#46A358"/>
<path d="M46.1704 11.5948C46.1803 11.9939 46.1869 12.3931 46.1969 12.7955C46.2068 13.2175 46.8687 13.2044 46.8588 12.7824C46.8489 12.3832 46.8422 11.9841 46.8323 11.5817C46.8224 11.1596 46.1605 11.1727 46.1704 11.5948Z" fill="#46A358"/>
<path d="M47.342 9.27847C47.385 9.60564 47.4281 9.9328 47.4711 10.2567C47.4943 10.4334 47.6167 10.5806 47.8087 10.5773C47.9708 10.5741 48.1562 10.4203 48.133 10.2436C48.09 9.91645 48.0469 9.58928 48.0039 9.26538C47.9808 9.08871 47.8583 8.94148 47.6664 8.94476C47.5009 8.94803 47.3155 9.1018 47.342 9.27847Z" fill="#46A358"/>
<path d="M47.438 14.1859C47.4413 14.3692 47.4446 14.5491 47.4479 14.7323C47.4578 15.1544 48.1197 15.1413 48.1098 14.7192C48.1065 14.536 48.1032 14.3561 48.0999 14.1729C48.0899 13.7508 47.428 13.7639 47.438 14.1859Z" fill="#46A358"/>
<path d="M46.005 8.86951C45.9719 9.1934 46.0447 9.49767 46.1804 9.79212C46.2532 9.95244 46.4981 9.98515 46.6371 9.90009C46.8059 9.79867 46.8191 9.61218 46.7463 9.4486C46.6603 9.26211 46.647 9.05599 46.6669 8.85315C46.6835 8.67648 46.4915 8.52925 46.3293 8.53252C46.1341 8.53907 46.0215 8.69284 46.005 8.86951Z" fill="#46A358"/>
<path d="M43.6949 14.0648C43.6288 14.4313 43.5626 14.7944 43.4964 15.1608C43.4203 15.5731 44.0623 15.7367 44.1384 15.3212C44.2046 14.9547 44.2708 14.5916 44.337 14.2251C44.4098 13.8129 43.7711 13.6493 43.6949 14.0648Z" fill="#46A358"/>
<path d="M45.5184 16.3222C45.4886 16.5774 45.4555 16.8326 45.4258 17.0878C45.4059 17.2645 45.4754 17.4379 45.664 17.487C45.8196 17.5262 46.0446 17.4281 46.0678 17.2514C46.0976 16.9962 46.1307 16.741 46.1605 16.4858C46.1803 16.3092 46.1108 16.1358 45.9222 16.0867C45.7666 16.0442 45.5416 16.1456 45.5184 16.3222Z" fill="#46A358"/>
<path d="M44.936 20.978C44.9889 21.2561 44.9559 21.5277 44.8665 21.7927C44.7308 22.1918 45.3728 22.3521 45.5085 21.953C45.6376 21.5735 45.6475 21.1841 45.5714 20.7915C45.5383 20.6181 45.3199 20.5233 45.161 20.5723C44.9724 20.628 44.8996 20.8046 44.936 20.978Z" fill="#46A358"/>
<path d="M42.9139 18.3378C42.8841 18.593 42.851 18.8482 42.8213 19.1034C42.8014 19.28 42.8709 19.4534 43.0595 19.5025C43.2151 19.5418 43.4401 19.4436 43.4633 19.2669C43.4931 19.0117 43.5262 18.7566 43.556 18.5014C43.5758 18.3247 43.5063 18.1513 43.3177 18.1022C43.1588 18.063 42.9338 18.1611 42.9139 18.3378Z" fill="#46A358"/>
<path d="M47.4215 18.8578C47.5009 19.221 47.577 19.5841 47.6565 19.944C47.7458 20.3562 48.3813 20.1665 48.2919 19.7575C48.2125 19.3944 48.1363 19.0312 48.0569 18.6713C47.9676 18.2591 47.3354 18.4456 47.4215 18.8578Z" fill="#46A358"/>
<path d="M47.855 23.6673C47.8616 24.0304 47.8716 24.3936 47.8782 24.7567C47.8881 25.1788 48.55 25.1657 48.5401 24.7437C48.5335 24.3805 48.5236 24.0173 48.5169 23.6542C48.5103 23.2321 47.8484 23.2452 47.855 23.6673Z" fill="#46A358"/>
<path d="M47.0739 28.4637C47.117 28.7189 47.1567 28.9708 47.1997 29.226C47.2295 29.3994 47.4545 29.491 47.6101 29.4452C47.7987 29.3896 47.8616 29.2129 47.8318 29.0395C47.7888 28.7843 47.7491 28.5324 47.7061 28.2772C47.6763 28.1038 47.4512 28.0122 47.2957 28.058C47.107 28.1103 47.0442 28.287 47.0739 28.4637Z" fill="#46A358"/>
<path d="M44.3733 26.0295C44.3766 26.2487 44.3833 26.4646 44.3866 26.6838C44.3965 27.1058 45.0584 27.0928 45.0485 26.6707C45.0452 26.4515 45.0386 26.2356 45.0352 26.0164C45.0286 25.5943 44.3667 25.6074 44.3733 26.0295Z" fill="#46A358"/>
<path d="M42.5498 23.2289C42.573 23.5004 42.5465 23.7556 42.4671 24.0174C42.3447 24.423 42.9867 24.5801 43.1092 24.1777C43.2051 23.8669 43.2382 23.5397 43.2117 23.2158C43.1753 22.8003 42.5134 22.8101 42.5498 23.2289Z" fill="#46A358"/>
<path d="M43.3805 30.7604C43.3474 31.0156 43.3177 31.2708 43.2846 31.526C43.2614 31.7026 43.3342 31.876 43.5228 31.9251C43.6784 31.9644 43.9034 31.8662 43.9266 31.6895C43.9597 31.4343 43.9895 31.1792 44.0226 30.924C44.0457 30.7473 43.9729 30.5739 43.7843 30.5248C43.6254 30.4856 43.4037 30.5837 43.3805 30.7604Z" fill="#46A358"/>
<path d="M46.7562 34.4672C46.7993 34.6831 46.839 34.9023 46.882 35.1182C46.9151 35.2916 47.1335 35.3865 47.2924 35.3374C47.4777 35.2818 47.5472 35.1051 47.5141 34.9317C47.4711 34.7158 47.4314 34.4966 47.3884 34.2807C47.3553 34.1073 47.1368 34.0124 46.978 34.0615C46.7926 34.1171 46.7231 34.2938 46.7562 34.4672Z" fill="#46A358"/>
<path d="M44.9657 38.2131C45.0452 38.5763 45.1279 38.9362 45.2073 39.2993C45.3 39.7116 45.9321 39.5218 45.8428 39.1129C45.7633 38.7497 45.6806 38.3898 45.6012 38.0267C45.5085 37.6144 44.8731 37.8009 44.9657 38.2131Z" fill="#46A358"/>
<path d="M48.6592 40.5818C48.5897 40.837 48.5235 41.0922 48.454 41.3507C48.3448 41.7596 48.9868 41.9199 49.096 41.511C49.1655 41.2558 49.2317 41.0006 49.3012 40.7421C49.4104 40.3332 48.7684 40.1729 48.6592 40.5818Z" fill="#46A358"/>
<path d="M48.166 12.1869C48.2091 12.4421 48.2521 12.6941 48.2951 12.9492C48.3249 13.1226 48.5499 13.2143 48.7055 13.1684C48.8941 13.1128 48.957 12.9362 48.9272 12.7628C48.8842 12.5076 48.8412 12.2556 48.7981 12.0005C48.7684 11.8271 48.5433 11.7355 48.3878 11.7813C48.2024 11.8369 48.1362 12.0135 48.166 12.1869Z" fill="#46A358"/>
<path d="M48.2455 16.6789C48.2919 17.006 48.3382 17.3299 48.3845 17.6571C48.411 17.8305 48.5269 17.981 48.7221 17.9777C48.8843 17.9744 49.0696 17.8207 49.0465 17.644C49.0001 17.3168 48.9538 16.9929 48.9075 16.6658C48.881 16.4924 48.7651 16.3419 48.5699 16.3451C48.4077 16.3484 48.2191 16.5055 48.2455 16.6789Z" fill="#46A358"/>
<path d="M53.2097 20.3106C53.1204 20.8242 53.0277 21.3346 52.9384 21.8483C52.8656 22.2605 53.5076 22.4241 53.5804 22.0086C53.6698 21.4949 53.7624 20.9845 53.8518 20.4709C53.9246 20.0586 53.2826 19.8951 53.2097 20.3106Z" fill="#46A358"/>
<path d="M54.4972 19.388C54.5039 19.6432 54.5072 19.8984 54.5138 20.1503C54.5237 20.5723 55.1856 20.5592 55.1757 20.1372C55.1691 19.882 55.1658 19.6268 55.1591 19.3749C55.1492 18.9528 54.4906 18.9659 54.4972 19.388Z" fill="#46A358"/>
<path d="M54.1364 22.8854C54.0735 23.4318 54.0139 23.9781 53.9511 24.5245C53.9047 24.9433 54.5666 24.9237 54.613 24.5114C54.6758 23.9651 54.7354 23.4187 54.7983 22.8723C54.8446 22.4568 54.1827 22.4732 54.1364 22.8854Z" fill="#46A358"/>
<path d="M52.4221 23.8439C52.2798 24.1383 52.1408 24.4328 51.9985 24.724C51.8164 25.1035 52.3956 25.4241 52.5776 25.0413C52.7199 24.7469 52.8589 24.4524 53.0012 24.1613C53.1833 23.7817 52.6041 23.4611 52.4221 23.8439Z" fill="#46A358"/>
<path d="M51.4259 22.0936C51.3399 22.3161 51.2571 22.5353 51.1711 22.7577C51.1082 22.9246 51.2505 23.1144 51.4094 23.1569C51.598 23.206 51.747 23.0849 51.8131 22.9213C51.8992 22.6989 51.9819 22.4797 52.068 22.2572C52.1309 22.0903 51.9885 21.9006 51.8297 21.858C51.641 21.809 51.4921 21.9267 51.4259 22.0936Z" fill="#46A358"/>
<path d="M53.3156 26.3925C53.3024 26.6837 53.2925 26.9749 53.2792 27.266C53.2627 27.6881 53.9246 27.6717 53.9411 27.253C53.9544 26.9618 53.9643 26.6706 53.9775 26.3794C53.9941 25.9574 53.3322 25.9737 53.3156 26.3925Z" fill="#46A358"/>
<path d="M54.6726 28.1103C54.6593 28.3818 54.6461 28.6566 54.6328 28.9282C54.6229 29.1048 54.8016 29.2521 54.9704 29.2488C55.1591 29.2455 55.2848 29.0918 55.2948 28.9151C55.308 28.6435 55.3212 28.3687 55.3345 28.0972C55.3444 27.9205 55.1657 27.7733 54.9969 27.7765C54.8082 27.7798 54.6825 27.9336 54.6726 28.1103Z" fill="#46A358"/>
<path d="M54.1497 31.035C54.1199 31.2706 54.0868 31.5094 54.057 31.745C54.0339 31.9184 54.11 32.095 54.2953 32.1441C54.4542 32.1834 54.6759 32.0852 54.6991 31.9085C54.7288 31.673 54.7619 31.4342 54.7917 31.1986C54.8149 31.0252 54.7388 30.8485 54.5534 30.7995C54.3946 30.7569 54.1728 30.8583 54.1497 31.035Z" fill="#46A358"/>
<path d="M51.6808 29.0133C51.6477 29.2129 51.6146 29.4157 51.5815 29.6153C51.5517 29.7887 51.6377 29.9653 51.8198 30.0144C51.9819 30.0537 52.1937 29.9523 52.2235 29.7789C52.2566 29.5793 52.2897 29.3764 52.3228 29.1769C52.3526 29.0035 52.2665 28.8268 52.0845 28.7777C51.9224 28.7352 51.7105 28.8366 51.6808 29.0133Z" fill="#46A358"/>
<path d="M52.1573 34.2152C52.1606 34.3592 52.164 34.5064 52.1673 34.6504C52.1772 35.0724 52.8391 35.0593 52.8292 34.6373C52.8259 34.4933 52.8225 34.3461 52.8192 34.2022C52.8093 33.7801 52.1474 33.7932 52.1573 34.2152Z" fill="#46A358"/>
<path d="M54.2953 36.1357C54.2986 36.2796 54.3019 36.4268 54.3052 36.5708C54.3151 36.9928 54.977 36.9797 54.9671 36.5577C54.9638 36.4137 54.9605 36.2665 54.9572 36.1226C54.9473 35.7005 54.2853 35.7136 54.2953 36.1357Z" fill="#46A358"/>
<path d="M52.389 40.101C52.4155 40.3562 52.389 40.5918 52.3063 40.8339C52.25 41.0007 52.3824 41.1905 52.5445 41.233C52.7299 41.2788 52.8887 41.1643 52.9483 40.9974C53.0476 40.7063 53.084 40.3955 53.0509 40.0912C53.031 39.9145 52.902 39.7673 52.7133 39.7706C52.5445 39.7706 52.3691 39.9243 52.389 40.101Z" fill="#46A358"/>
<path d="M53.2064 18.6517C53.1204 18.8185 53.031 18.9854 52.945 19.149C52.7497 19.5219 53.3256 19.8425 53.5241 19.4663C53.6102 19.2994 53.6995 19.1326 53.7856 18.969C53.9809 18.596 53.405 18.2754 53.2064 18.6517Z" fill="#46A358"/>
<path d="M36.04 12.4324C36.0996 12.776 36.1625 13.1228 36.2221 13.4663C36.2518 13.6397 36.4769 13.7313 36.6324 13.6855C36.8211 13.6299 36.8873 13.4532 36.8542 13.2798C36.7946 12.9363 36.7317 12.5895 36.6721 12.2459C36.6424 12.0725 36.4173 11.9809 36.2618 12.0267C36.0731 12.0824 36.0069 12.259 36.04 12.4324Z" fill="#46A358"/>
<path d="M37.0262 14.595C37.1785 14.9549 37.334 15.318 37.4863 15.6779C37.5558 15.8415 37.7146 15.9527 37.8966 15.8971C38.0522 15.8513 38.1879 15.655 38.1184 15.4914C37.9661 15.1315 37.8106 14.7684 37.6584 14.4085C37.5889 14.2449 37.43 14.1337 37.248 14.1893C37.0924 14.2351 36.9567 14.4314 37.0262 14.595Z" fill="#46A358"/>
<path d="M36.1227 15.8023C36.0466 16.3061 36.0532 16.787 36.1426 17.2843C36.2154 17.6966 36.8475 17.5101 36.778 17.0978C36.7118 16.7249 36.7118 16.3388 36.7681 15.9626C36.8243 15.5503 36.1823 15.3868 36.1227 15.8023Z" fill="#46A358"/>
<path d="M37.3804 17.6931C37.4929 18.0006 37.6021 18.3114 37.7146 18.619C37.8569 19.0149 38.4924 18.8316 38.3501 18.4325C38.2375 18.125 38.1283 17.8141 38.0158 17.5066C37.8735 17.1107 37.2381 17.294 37.3804 17.6931Z" fill="#46A358"/>
<path d="M35.8415 19.0019C35.8481 19.365 35.858 19.7282 35.8646 20.0913C35.8746 20.5134 36.5365 20.5003 36.5265 20.0783C36.5199 19.7151 36.51 19.3519 36.5034 18.9888C36.4968 18.5667 35.8349 18.5798 35.8415 19.0019Z" fill="#46A358"/>
<path d="M37.0825 20.232C37.0891 20.5591 37.0957 20.8863 37.1024 21.2135C37.1123 21.6355 37.7742 21.6224 37.7643 21.2004C37.7576 20.8732 37.751 20.5461 37.7444 20.2189C37.7345 19.7968 37.0726 19.8099 37.0825 20.232Z" fill="#46A358"/>
<path d="M38.9326 20.8797C39.065 21.2593 39.2007 21.6388 39.333 22.0183C39.472 22.4142 40.1075 22.231 39.9685 21.8318C39.8361 21.4523 39.7004 21.0728 39.568 20.6933C39.429 20.2974 38.7936 20.4806 38.9326 20.8797Z" fill="#46A358"/>
<path d="M39.6573 24.1383C39.697 24.3379 39.74 24.5375 39.7798 24.737C39.8162 24.9104 40.0313 25.0053 40.1901 24.9562C40.3755 24.9006 40.4483 24.7239 40.4119 24.5505C40.3722 24.351 40.3291 24.1514 40.2894 23.9518C40.253 23.7784 40.0379 23.6835 39.879 23.7326C39.697 23.785 39.6209 23.9649 39.6573 24.1383Z" fill="#46A358"/>
<path d="M37.8405 24.1743C37.9497 24.4818 38.0291 24.7959 38.0655 25.1198C38.0854 25.2965 38.2144 25.4437 38.4031 25.4404C38.5686 25.4372 38.7473 25.2834 38.7274 25.1067C38.6844 24.7239 38.605 24.351 38.4759 23.9878C38.3336 23.5919 37.6981 23.7752 37.8405 24.1743Z" fill="#46A358"/>
<path d="M36.1426 22.8689C36.1492 23.1241 36.1526 23.3793 36.1592 23.6312C36.1691 24.0533 36.831 24.0402 36.8211 23.6181C36.8145 23.363 36.8111 23.1078 36.8045 22.8558C36.7946 22.4338 36.136 22.4469 36.1426 22.8689Z" fill="#46A358"/>
<path d="M36.9402 26.7786C36.9667 27.1058 37.0295 27.4264 37.1388 27.7339C37.2811 28.1298 37.9165 27.9466 37.7742 27.5474C37.6815 27.2922 37.6219 27.0338 37.6021 26.7655C37.5723 26.3467 36.9104 26.3598 36.9402 26.7786Z" fill="#46A358"/>
<path d="M38.3898 29.5629C38.4494 29.7625 38.5089 29.962 38.5685 30.1583C38.6877 30.5608 39.3231 30.3775 39.2039 29.9718C39.1444 29.7723 39.0848 29.576 39.0252 29.3764C38.9061 28.974 38.2707 29.1572 38.3898 29.5629Z" fill="#46A358"/>
<path d="M39.1675 27.0372C39.2072 27.1812 39.2469 27.3251 39.2866 27.4723C39.3991 27.878 40.0346 27.6915 39.922 27.2859C39.8823 27.1419 39.8426 26.9979 39.8029 26.8507C39.6904 26.445 39.0549 26.6315 39.1675 27.0372Z" fill="#46A358"/>
<path d="M37.2911 32.4779C37.3738 32.8018 37.4532 33.129 37.536 33.4529C37.6386 33.8618 38.274 33.6753 38.1714 33.2664C38.0887 32.9425 38.0092 32.6153 37.9265 32.2914C37.8239 31.8824 37.1885 32.0689 37.2911 32.4779Z" fill="#46A358"/>
<path d="M38.9358 37.2416C38.9954 37.3855 39.0517 37.5295 39.1112 37.6735C39.1774 37.837 39.3396 37.9483 39.5216 37.8927C39.6805 37.8468 39.8095 37.6505 39.7433 37.487C39.6838 37.343 39.6275 37.1991 39.5679 37.0551C39.5018 36.8915 39.3396 36.7803 39.1576 36.8359C38.9987 36.8817 38.8696 37.078 38.9358 37.2416Z" fill="#46A358"/>
<path d="M60.4808 23.6836C60.3054 24.0336 60.1267 24.3804 59.9513 24.7305C59.7593 25.1068 60.3385 25.4274 60.5305 25.0479C60.7059 24.6978 60.8846 24.351 61.06 24.0009C61.2519 23.6247 60.6728 23.3073 60.4808 23.6836Z" fill="#46A358"/>
<path d="M61.4074 24.5047C61.3247 24.8352 61.2387 25.1623 61.1559 25.4928C61.05 25.9017 61.6921 26.0621 61.798 25.6531C61.8807 25.3227 61.9667 24.9955 62.0495 24.6651C62.1521 24.2594 61.51 24.0991 61.4074 24.5047Z" fill="#46A358"/>
<path d="M60.5933 27.6326C60.5105 27.9074 60.4278 28.1823 60.3417 28.4571C60.2193 28.8628 60.8613 29.0198 60.9838 28.6174C61.0665 28.3426 61.1493 28.0678 61.2353 27.7929C61.3545 27.3905 60.7124 27.2302 60.5933 27.6326Z" fill="#46A358"/>
<path d="M60.0374 26.3076C59.9679 26.4352 59.895 26.566 59.8255 26.6936C59.6204 27.0633 60.1995 27.384 60.4047 27.011C60.4742 26.8834 60.547 26.7525 60.6165 26.6249C60.8217 26.2585 60.2425 25.9379 60.0374 26.3076Z" fill="#46A358"/>
<path d="M61.6722 26.4645C61.6424 26.7197 61.6126 26.9749 61.5829 27.2301C61.563 27.4067 61.6325 27.5801 61.8211 27.6292C61.9767 27.6685 62.2017 27.5703 62.2249 27.3937C62.2547 27.1385 62.2845 26.8833 62.3143 26.6281C62.3341 26.4514 62.2646 26.278 62.076 26.2289C61.9171 26.1897 61.6921 26.2878 61.6722 26.4645Z" fill="#46A358"/>
<path d="M58.5546 28.1626C58.4884 28.372 58.3891 28.5617 58.27 28.745C58.0383 29.0983 58.6175 29.4157 58.8492 29.0623C59.0014 28.8333 59.1139 28.5846 59.1966 28.3229C59.2496 28.1561 59.1238 27.9663 58.9584 27.9238C58.773 27.8812 58.6076 27.9925 58.5546 28.1626Z" fill="#46A358"/>
<path d="M58.5348 30.9763C58.3925 31.2085 58.323 31.4735 58.3362 31.7451C58.356 32.1639 59.018 32.1541 58.9981 31.732C58.9915 31.5684 59.0246 31.4343 59.1139 31.2969C59.3357 30.9337 58.7565 30.6164 58.5348 30.9763Z" fill="#46A358"/>
<path d="M60.259 30.2565C60.1928 30.4757 60.1266 30.6982 60.0637 30.9174C59.9446 31.3231 60.5866 31.4801 60.7058 31.0777C60.772 30.8585 60.8382 30.636 60.901 30.4168C61.0202 30.0111 60.3781 29.8541 60.259 30.2565Z" fill="#46A358"/>
<path d="M59.713 33.4822C59.6435 33.7211 59.5773 33.9566 59.5078 34.1955C59.392 34.6012 60.034 34.7615 60.1499 34.3558C60.2194 34.1169 60.2855 33.8814 60.355 33.6426C60.4709 33.2401 59.8288 33.0798 59.713 33.4822Z" fill="#46A358"/>
<path d="M61.8112 28.8366C61.7946 28.9838 61.7814 29.1277 61.7648 29.275C61.745 29.4516 61.9402 29.5989 62.1024 29.5956C62.301 29.5923 62.4069 29.4386 62.4267 29.2619C62.4433 29.1147 62.4565 28.9707 62.4731 28.8235C62.4929 28.6468 62.2977 28.4996 62.1355 28.5029C61.9369 28.5094 61.831 28.6599 61.8112 28.8366Z" fill="#46A358"/>
<path d="M57.6545 35.3799C57.6214 35.4911 57.585 35.5991 57.5519 35.7103C57.4261 36.1127 58.0682 36.2731 58.1939 35.8706C58.227 35.7594 58.2634 35.6514 58.2965 35.5402C58.4223 35.1378 57.7802 34.9807 57.6545 35.3799Z" fill="#46A358"/>
<path d="M57.1217 38.7203C57.0522 38.9035 56.9794 39.0867 56.9099 39.2699C56.847 39.4335 56.9893 39.6266 57.1482 39.6691C57.3401 39.7182 57.4857 39.5971 57.5519 39.4335C57.6214 39.2503 57.6942 39.0671 57.7637 38.8839C57.8266 38.7203 57.6843 38.5273 57.5254 38.4847C57.3335 38.4357 57.1879 38.5534 57.1217 38.7203Z" fill="#46A358"/>
<path d="M59.7262 37.3887C59.7295 37.4967 59.7295 37.6079 59.7328 37.7159C59.7427 38.1379 60.4046 38.1248 60.3947 37.7028C60.3914 37.5948 60.3914 37.4836 60.3881 37.3756C60.3782 36.9536 59.7163 36.9667 59.7262 37.3887Z" fill="#46A358"/>
<path d="M58.4918 41.7237C58.4753 41.8709 58.462 42.0148 58.4455 42.1621C58.4256 42.3387 58.6209 42.486 58.7831 42.4827C58.9816 42.4794 59.0875 42.3257 59.1074 42.149C59.1239 42.0018 59.1372 41.8578 59.1537 41.7106C59.1736 41.5339 58.9783 41.3867 58.8162 41.3899C58.6209 41.3932 58.5117 41.547 58.4918 41.7237Z" fill="#46A358"/>
<path d="M28.2594 28.0808C28.3157 28.2607 28.3752 28.4439 28.4315 28.6239C28.5572 29.0263 29.1927 28.8398 29.0669 28.4374C29.0106 28.2574 28.9511 28.0742 28.8948 27.8943C28.7657 27.4919 28.1303 27.6783 28.2594 28.0808Z" fill="#46A358"/>
<path d="M28.9411 27.3381C29.1629 27.6097 29.3879 27.8812 29.6097 28.1495C29.7222 28.2869 29.9638 28.2574 30.0763 28.1397C30.212 27.999 30.1789 27.8158 30.0664 27.6784C29.8446 27.4068 29.6196 27.1353 29.3979 26.867C29.2853 26.7296 29.0437 26.759 28.9312 26.8768C28.7955 27.0142 28.8286 27.2007 28.9411 27.3381Z" fill="#46A358"/>
<path d="M30.212 29.6414C30.4039 29.9097 30.5959 30.178 30.7845 30.443C31.0294 30.7865 31.5954 30.4463 31.3504 30.1027C31.1585 29.8345 30.9665 29.5662 30.7779 29.3012C30.5297 28.9576 29.9638 29.2946 30.212 29.6414Z" fill="#46A358"/>
<path d="M29.3979 30.4233C29.5501 30.6752 29.7023 30.9271 29.8546 31.1791C30.073 31.5389 30.6389 31.1987 30.4205 30.8388C30.2683 30.5869 30.116 30.335 29.9638 30.083C29.742 29.7199 29.1794 30.0601 29.3979 30.4233Z" fill="#46A358"/>
<path d="M30.8805 33.1225C31.0725 33.4628 31.2677 33.803 31.4597 34.1433C31.6682 34.5097 32.2341 34.1694 32.0256 33.803C31.8337 33.4628 31.6384 33.1225 31.4465 32.7823C31.2346 32.4158 30.672 32.7561 30.8805 33.1225Z" fill="#46A358"/>
<path d="M31.4663 32.1311C31.5987 32.3274 31.7311 32.527 31.8634 32.7233C32.0984 33.0734 32.6643 32.7331 32.4294 32.383C32.297 32.1867 32.1646 31.9872 32.0322 31.7909C31.7939 31.4408 31.228 31.7778 31.4663 32.1311Z" fill="#46A358"/>
<path d="M31.7741 30.757C31.8833 30.9893 32.0686 31.1693 32.2903 31.3001C32.661 31.5128 32.982 30.9402 32.6114 30.7276C32.479 30.6523 32.3996 30.5509 32.3367 30.4168C32.2606 30.2565 32.0223 30.2237 31.88 30.3088C31.7178 30.4102 31.6979 30.5967 31.7741 30.757Z" fill="#46A358"/>
<path d="M29.2919 32.4746C29.3349 32.6545 29.3746 32.8345 29.4176 33.0177C29.4573 33.1911 29.6658 33.286 29.828 33.2369C30.01 33.1846 30.0895 33.0013 30.0497 32.8312C30.0067 32.6513 29.967 32.4713 29.924 32.2881C29.8843 32.1147 29.6758 32.0198 29.5136 32.0689C29.3316 32.1213 29.2522 32.3045 29.2919 32.4746Z" fill="#46A358"/>
<path d="M31.3802 35.8935C31.5325 36.201 31.6847 36.5086 31.8336 36.8128C31.9131 36.9731 32.148 37.0058 32.2903 36.9208C32.4558 36.8226 32.479 36.6296 32.3996 36.4693C32.2473 36.1618 32.0951 35.8542 31.9462 35.55C31.8667 35.3896 31.6317 35.3569 31.4894 35.442C31.324 35.5434 31.3008 35.7364 31.3802 35.8935Z" fill="#46A358"/>
<path d="M33.8525 34.9677C33.9683 35.1837 34.0808 35.3996 34.1966 35.6155C34.3952 35.9885 34.9578 35.645 34.7626 35.2753C34.6467 35.0593 34.5342 34.8434 34.4184 34.6275C34.2165 34.2545 33.6539 34.5948 33.8525 34.9677Z" fill="#46A358"/>
<path d="M34.6071 39.6462C34.703 39.8261 34.799 40.0061 34.8983 40.1828C35.1002 40.5557 35.6628 40.2122 35.4642 39.8425C35.3682 39.6626 35.2723 39.4826 35.173 39.3059C34.9711 38.933 34.4052 39.2732 34.6071 39.6462Z" fill="#46A358"/>
<path d="M35.7819 37.9875C35.8944 38.1675 36.0103 38.3474 36.1228 38.5273C36.3478 38.884 36.9138 38.5437 36.6887 38.1871C36.5762 38.0071 36.4603 37.8272 36.3478 37.6473C36.1195 37.2907 35.5535 37.6309 35.7819 37.9875Z" fill="#46A358"/>
<path d="M37.099 43.0324C37.1917 43.196 37.2877 43.3563 37.3803 43.5199C37.5921 43.8863 38.1548 43.5428 37.9463 43.1796C37.8536 43.0161 37.7576 42.8558 37.6649 42.6922C37.4531 42.3257 36.8872 42.666 37.099 43.0324Z" fill="#46A358"/>
<path d="M26.4259 41.0105C26.6476 41.1152 26.8727 41.2167 27.0944 41.3214C27.4783 41.5013 27.8026 40.9288 27.4154 40.7488C27.1937 40.6441 26.9687 40.5427 26.7469 40.438C26.3663 40.2613 26.042 40.8306 26.4259 41.0105Z" fill="#46A358"/>
<path d="M28.5341 41.9625C28.779 42.1359 29.0239 42.3126 29.2655 42.486C29.4111 42.5906 29.6361 42.5023 29.7156 42.3584C29.8115 42.1882 29.7321 42.0181 29.5865 41.9134C29.3416 41.74 29.0967 41.5633 28.8551 41.3899C28.7095 41.2852 28.4844 41.3736 28.405 41.5175C28.3123 41.6877 28.3918 41.8578 28.5341 41.9625Z" fill="#46A358"/>
<path d="M28.2098 40.9615C28.3786 40.9975 28.5341 41.0531 28.6863 41.1381C29.0603 41.341 29.3813 40.7684 29.0074 40.5656C28.8088 40.4576 28.5937 40.3758 28.3719 40.3268C27.9582 40.2352 27.7928 40.8699 28.2098 40.9615Z" fill="#46A358"/>
<path d="M30.1491 42.3584C30.298 42.4631 30.4469 42.571 30.5959 42.6757C30.7415 42.7772 30.9665 42.6921 31.046 42.5481C31.1419 42.378 31.0625 42.2046 30.9169 42.1032C30.768 41.9985 30.619 41.8905 30.4701 41.7858C30.3245 41.6844 30.0994 41.7695 30.02 41.9134C29.9273 42.0836 30.0035 42.2537 30.1491 42.3584Z" fill="#46A358"/>
<path d="M30.1028 43.3366C30.1789 43.4446 30.255 43.5525 30.3311 43.6605C30.5727 44.004 31.1387 43.667 30.8971 43.3202C30.8209 43.2123 30.7448 43.1043 30.6687 42.9963C30.4271 42.6495 29.8579 42.9898 30.1028 43.3366Z" fill="#46A358"/>
<path d="M31.602 43.8633C31.7509 43.9876 31.8999 44.1119 32.0521 44.2363C32.1878 44.3508 32.3897 44.3606 32.5187 44.2264C32.6379 44.1054 32.6478 43.8764 32.5088 43.7651C32.3599 43.6408 32.211 43.5165 32.0587 43.3922C31.923 43.2777 31.7212 43.2678 31.5921 43.402C31.4729 43.5198 31.463 43.7488 31.602 43.8633Z" fill="#46A358"/>
<path d="M65.7628 34.225C65.4086 34.1596 65.0578 34.1661 64.707 34.2545C64.2933 34.3591 64.482 34.9873 64.8957 34.8826C65.1273 34.8237 65.3623 34.8139 65.5973 34.8597C66.0176 34.9382 66.1798 34.3035 65.7628 34.225Z" fill="#46A358"/>
<path d="M63.4793 34.9022C63.3535 34.9971 63.2244 35.0887 63.0987 35.1836C62.9564 35.2883 62.8902 35.4715 62.9895 35.6351C63.0755 35.7758 63.3006 35.851 63.4462 35.743C63.5719 35.6482 63.701 35.5566 63.8268 35.4617C63.9691 35.357 64.0353 35.1738 63.936 35.0102C63.8499 34.8695 63.6249 34.7975 63.4793 34.9022Z" fill="#46A358"/>
<path d="M63.5851 34.5816C64.012 34.5717 63.9988 33.9174 63.5718 33.9272C63.1449 33.937 63.1581 34.5914 63.5851 34.5816Z" fill="#46A358"/>
</g>
<g clip-path="url(#clip1_10_734)">
<path d="M30.3859 47.6165C28.0447 53.631 26.3971 59.9164 25.8568 66.3709C25.3966 71.8879 25.5367 77.8382 28.5583 82.6512C28.9051 83.2029 29.7589 82.6749 29.412 82.1198C26.3804 77.2933 26.3871 71.2381 26.9141 65.7245C27.501 59.5813 29.1285 53.5938 31.3564 47.867C31.5898 47.2611 30.6193 47.0174 30.3859 47.6165Z" fill="#727272"/>
<path d="M60.7884 46.6856C66.1145 50.7472 66.1212 58.1935 66.6948 64.3062C66.9849 67.3896 67.3852 70.4832 67.5252 73.5802C67.6553 76.4097 67.4218 79.4153 65.214 81.4191C64.7338 81.8557 65.4575 82.5563 65.9344 82.1231C67.8787 80.3597 68.4791 77.8347 68.5458 75.2725C68.6425 71.6238 68.0322 67.9142 67.692 64.2893C67.095 57.9193 67.0216 50.182 61.4787 45.9545C60.9718 45.5653 60.2748 46.293 60.7884 46.6856Z" fill="#727272"/>
<path d="M28.7583 82.8542C31.5831 83.8865 34.4713 84.1437 37.4428 84.3976C40.7312 84.6785 44.0496 85.1016 47.3547 84.9831C50.7098 84.8647 54.0749 84.3806 57.4099 84.0151C60.3281 83.6936 63.223 83.2874 65.9444 82.1095C66.528 81.8557 66.2512 80.8775 65.6576 81.1348C62.8361 82.3566 59.8412 82.7357 56.8163 83.0606C53.668 83.3991 50.4996 83.856 47.3347 83.9677C44.233 84.0794 41.1248 83.6969 38.0365 83.4363C34.9582 83.1723 31.9366 82.9422 29.0051 81.8726C28.3981 81.6458 28.158 82.6342 28.7583 82.8542Z" fill="#727272"/>
<path d="M30.626 48.1851C32.9538 49.1498 35.3318 50.0027 37.8431 50.3039C40.4544 50.6153 43.1158 50.1685 45.7439 50.2362C47.2013 50.2735 48.512 50.4732 49.9827 50.2599C51.2501 50.0738 52.5174 49.8165 53.748 49.4612C56.2994 48.7233 58.7707 47.6944 61.2753 46.8076C61.8789 46.5943 61.5988 45.6196 60.9885 45.8328C56.0859 47.5691 51.4902 49.5965 46.1974 49.2479C43.9963 49.1024 41.8051 49.4307 39.6107 49.4104C36.6558 49.3799 33.8143 48.4187 31.1062 47.2983C30.5226 47.0547 30.029 47.9381 30.626 48.1851Z" fill="#727272"/>
<path d="M0.663721 51.2414C6.26665 52.135 11.4794 54.8258 15.3847 59.0194C19.1634 63.0776 21.2878 68.4254 25.41 72.1925C25.8869 72.6291 26.5839 71.898 26.1037 71.4614C21.7347 67.4675 19.5502 61.6899 15.3481 57.5369C11.4127 53.6479 6.32334 51.1196 0.910517 50.2565C0.276853 50.1549 0.0267222 51.1399 0.663721 51.2414Z" fill="#727272"/>
<path d="M1.53746 49.4239C6.62345 48.246 12.0296 48.9466 16.5987 51.5427C20.2439 53.6141 23.2355 56.8871 27.5877 57.3338C28.2281 57.3981 28.2014 56.3827 27.5677 56.3184C22.6852 55.8175 19.1633 51.3531 14.761 49.5186C10.4688 47.7315 5.763 47.4066 1.25398 48.4491C0.623652 48.5946 0.910469 49.5694 1.53746 49.4239Z" fill="#727272"/>
<path d="M0.72372 48.7435C0.340187 49.2783 0.0933909 49.9045 0.00667897 50.5577C-0.0300069 50.8319 0.0867207 51.0993 0.370202 51.1737C0.606992 51.238 0.9405 51.079 0.977186 50.8048C1.05389 50.2226 1.25733 49.7115 1.59751 49.2343C1.75759 49.0109 1.61752 48.6691 1.40408 48.5438C1.14727 48.3983 0.880469 48.5235 0.72372 48.7435Z" fill="#727272"/>
<path d="M64.8106 49.6709C66.8783 45.6533 73.4484 45.1355 77.157 46.9767C81.1758 48.9737 83.0301 53.8104 81.3825 58.0412C79.9485 61.7271 76.2632 63.5312 73.2316 65.6567C71.9543 66.5537 70.5335 67.5623 69.6497 68.8857C68.7259 70.27 68.846 72.0301 67.9322 73.411C67.572 73.9559 68.4491 74.4433 68.806 73.9052C69.3829 73.0353 69.5497 72.1079 69.8065 71.1128C70.17 69.7217 70.8971 68.8282 71.9409 67.9177C73.7385 66.3506 75.8463 65.2167 77.7606 63.8121C81.1491 61.3244 83.527 57.7908 82.8967 53.3636C82.3197 49.3325 79.1247 45.9986 75.1793 45.2641C71.2039 44.5229 65.9645 45.237 63.9334 49.1802C63.6366 49.7556 64.5104 50.2497 64.8106 49.6709Z" fill="#727272"/>
<path d="M65.8244 52.2263C67.2085 49.4238 70.3601 48.6995 73.2216 48.9229C75.1293 49.0718 76.3066 49.8334 77.3038 51.4953C78.4077 53.3297 78.3543 54.8833 77.7306 56.8396C76.7501 59.9062 74.9825 61.3277 72.2645 62.7662C70.4835 63.7071 67.7654 64.9392 67.0551 67.0207C66.845 67.6401 67.8155 67.8838 68.0256 67.2712C68.6726 65.3758 71.8476 64.1438 73.4818 63.2671C74.8992 62.509 76.2265 61.673 77.1837 60.336C78.6978 58.224 79.9418 54.775 78.8446 52.2737C77.5039 49.214 75.4528 47.8567 72.1777 47.8804C69.2629 47.9007 66.3247 48.9568 64.954 51.7322C64.6638 52.3143 65.5376 52.8085 65.8244 52.2263Z" fill="#727272"/>
<path d="M47.3081 59.5711C44.3666 60.0145 41.8819 62.2348 41.5851 65.3386C41.3016 68.2968 43.2693 72.1485 46.6111 71.9218C49.6593 71.7153 52.3674 68.7165 52.6475 65.7177C52.9577 62.4176 50.5198 59.5406 47.208 59.6862C46.5644 59.7133 46.5844 60.7287 47.228 60.7016C50.1329 60.573 52.1339 63.2672 51.5903 66.1035C51.1501 68.3983 48.969 70.7134 46.591 70.9097C43.6695 71.1501 42.1787 67.3965 42.6423 64.9595C43.0859 62.6241 45.0569 60.9317 47.3281 60.5899C47.9551 60.4917 47.9451 59.473 47.3081 59.5711Z" fill="#727272"/>
<path d="M47.8817 60.0145C47.7049 57.8619 51.0366 54.5889 52.7042 57.08C53.2211 57.8517 53.7214 59.2225 53.5079 60.1736C53.2778 61.1924 52.294 61.9539 51.5402 62.5801C51.0433 62.993 51.7704 63.6936 52.2606 63.2841C53.4479 62.2992 54.6685 61.1179 54.5552 59.429C54.4618 58.048 53.708 56.2271 52.5208 55.4689C49.9861 53.8477 46.6777 57.5606 46.8811 60.0382C46.9345 60.6847 47.935 60.6678 47.8817 60.0145Z" fill="#727272"/>
<path d="M52.5274 63.5109C53.7814 62.7561 57.0264 62.9558 56.6896 65.1355C56.3694 67.2137 53.718 67.2983 52.1472 67.3186C51.5035 67.3254 51.5235 68.3408 52.1672 68.334C54.3717 68.307 58.227 67.6029 57.6767 64.4383C57.2432 61.9539 53.788 61.5681 52.0038 62.6444C51.4501 62.9795 51.9704 63.846 52.5274 63.5109Z" fill="#727272"/>
<path d="M51.5203 68.5201C53.2745 69.3053 55.2489 71.6374 53.5814 73.5192C51.6304 75.7193 48.8089 73.5429 48.0885 71.4208C47.8784 70.8047 46.9179 71.0891 47.128 71.7118C48.0618 74.4534 51.4269 76.8227 54.0216 74.4974C56.5429 72.2398 54.5385 68.7672 52.0072 67.6299C51.4236 67.3693 50.9333 68.2561 51.5203 68.5201Z" fill="#727272"/>
<path d="M46.6476 71.6746C46.7377 73.3805 46.2674 75.919 44.0063 75.6143C42.9791 75.4756 42.1886 74.538 42.2353 73.4752C42.2754 72.5208 42.939 71.4072 43.3026 70.534C43.5494 69.9383 42.6789 69.4373 42.4288 70.0398C41.8985 71.3192 40.978 72.8118 41.3182 74.2571C41.595 75.4282 42.5055 76.359 43.6728 76.5925C46.651 77.1916 47.7749 74.0743 47.6482 71.6509C47.6148 71.001 46.6143 71.018 46.6476 71.6746Z" fill="#727272"/>
<path d="M43.1659 69.2715C41.3016 70.0534 38.4234 69.8537 37.7731 67.481C37.4896 66.4385 37.8064 65.2065 38.7703 64.6413C39.7074 64.093 40.9181 64.2385 41.9386 64.3637C42.5689 64.4416 42.8224 63.4567 42.1854 63.3788C40.7713 63.2062 39.1671 63.0539 37.9498 63.9745C36.9393 64.7394 36.5291 66.0798 36.7225 67.3152C37.2228 70.5069 40.9014 71.3091 43.4494 70.2429C44.043 69.9992 43.7629 69.021 43.1659 69.2715Z" fill="#727272"/>
<path d="M42.5456 63.4939C40.8613 62.58 39.9809 59.2224 41.4583 57.7704C43.3993 55.8648 45.7839 58.5658 46.9579 60.028C47.3647 60.5323 48.0518 59.7978 47.6516 59.2969C46.1174 57.3879 42.799 54.467 40.5312 57.2187C38.8636 59.2461 39.8608 63.1893 42.0586 64.384C42.6256 64.6921 43.1159 63.8053 42.5456 63.4939Z" fill="#727272"/>
<path d="M44.1531 70.9571C43.3627 71.7288 42.8491 73.8172 44.0631 74.4501C45.5172 75.2116 46.1608 72.6224 46.3543 71.6882C46.441 71.2617 45.794 71.0959 45.7073 71.5224C45.6205 71.9454 45.5105 72.3618 45.3571 72.7679C45.2804 72.9676 45.197 73.1673 45.0969 73.3568C44.9435 73.6513 44.8535 73.8409 44.5 73.8002C43.5461 73.6818 44.1998 71.8507 44.6367 71.4276C44.9435 71.123 44.4633 70.6559 44.1531 70.9571Z" fill="#727272"/>
<path d="M48.452 71.0044C48.2819 71.9792 49.3691 72.7441 50.1462 73.0927C50.9333 73.4448 52.0305 73.5632 52.7676 73.0115C53.4713 72.4835 53.3612 71.5256 53.0577 70.7946C52.6442 69.7995 51.7937 69.1293 50.8099 68.7773C50.403 68.6318 50.2429 69.2918 50.6465 69.4339C51.2401 69.6472 51.7737 70.0059 52.1506 70.5272C52.2806 70.7099 52.3807 70.9029 52.4641 71.1127C52.6575 71.6069 52.6875 71.8303 52.344 72.2601C52.0505 72.6257 51.8971 72.7103 51.4502 72.7137C51.1701 72.7137 50.8799 72.6561 50.6164 72.5614C50.2129 72.4158 48.9956 71.7727 49.099 71.177C49.1724 70.7438 48.5287 70.5746 48.452 71.0044Z" fill="#727272"/>
<path d="M52.3207 66.6248C53.1578 66.8381 53.9915 66.4725 54.6952 66.0224C55.2088 65.694 55.8859 65.095 55.8258 64.4011C55.7758 63.8223 55.2088 63.5482 54.7019 63.4872C53.8281 63.3789 52.971 63.7614 52.2606 64.242C51.9038 64.4823 52.2506 65.0645 52.6075 64.8208C52.9777 64.567 53.3712 64.3436 53.8081 64.2319C54.2117 64.1269 55.3856 63.9577 55.0287 64.8073C54.7153 65.562 53.1945 66.1476 52.4841 65.9682C52.0672 65.8633 51.9038 66.5199 52.3207 66.6248Z" fill="#727272"/>
<path d="M49.209 60.3056C49.1556 59.7912 49.2624 59.2801 49.6292 58.901C49.896 58.6201 50.543 58.2478 50.9232 58.4644C51.2601 58.6573 51.2367 59.4696 51.2367 59.8453C51.2334 60.3835 51.12 60.8946 50.9432 61.3989C50.7998 61.8084 51.4468 61.9709 51.5903 61.5647C51.8771 60.7456 51.9771 59.8859 51.8404 59.0228C51.747 58.4305 51.647 57.8416 50.9899 57.7536C49.5358 57.5539 48.4053 58.9247 48.5487 60.3226C48.5853 60.749 49.2524 60.7389 49.209 60.3056Z" fill="#727272"/>
<path d="M43.0158 62.5699C42.4988 61.9098 42.0553 60.7117 42.2287 59.8621C42.3321 59.3477 42.4522 59.1987 42.9791 59.1446C43.506 59.0904 43.6361 59.2495 44.0163 59.5609C44.4032 59.8757 44.78 60.2006 45.1636 60.5188C45.4937 60.7929 45.9573 60.3089 45.6238 60.0314C44.6833 59.2461 43.1725 57.4353 41.9752 58.8129C41.0481 59.8824 41.6717 61.9403 42.4455 62.9252C42.709 63.2603 43.2826 62.9117 43.0158 62.5699Z" fill="#727272"/>
<path d="M41.8185 65.2065C40.5178 64.6785 38.8202 65.8529 39.0203 67.3354C39.2071 68.7401 41.4383 69.2613 42.4421 68.4693C42.7756 68.2053 42.4321 67.6231 42.0953 67.8905C41.5483 68.3237 40.1876 68.2087 39.7874 67.5622C39.2004 66.6246 40.6312 65.4434 41.4983 65.7988C41.8885 65.9579 42.2153 65.3689 41.8185 65.2065Z" fill="#727272"/>
</g>
<defs>
<clipPath id="clip0_10_734">
<rect width="44" height="49" fill="white" transform="translate(24)"/>
</clipPath>
<clipPath id="clip1_10_734">
<rect width="83" height="40" fill="white" transform="translate(0 45)"/>
</clipPath>
</defs>
</svg>
